<mxfile host="app.diagrams.net" modified="2021-06-28T06:29:05.539Z" agent="5.0 (X11; Linux x86_64) AppleWebKit/537.36 (KHTML, like Gecko) Chrome/91.0.4472.114 Safari/537.36" etag="8f4LDq3e4a1aFDc5M851" version="14.8.1" type="github">
  <diagram id="aRto-FdufkMi2AUzf7bY" name="Page-1">
    <mxGraphModel dx="1132" dy="753" grid="1" gridSize="10" guides="1" tooltips="1" connect="1" arrows="1" fold="1" page="1" pageScale="1" pageWidth="850" pageHeight="1100" background="#ffffff" math="0" shadow="0">
      <root>
        <mxCell id="0" />
        <mxCell id="1" parent="0" />
        <mxCell id="SylHTYyNxGbu1ZK3sP99-1" value="Actor" style="shape=umlActor;verticalLabelPosition=bottom;verticalAlign=top;html=1;outlineConnect=0;" parent="1" vertex="1">
          <mxGeometry x="20" y="260" width="30" height="60" as="geometry" />
        </mxCell>
        <mxCell id="SylHTYyNxGbu1ZK3sP99-3" value="SSO Bypass" style="rounded=0;whiteSpace=wrap;html=1;" parent="1" vertex="1">
          <mxGeometry x="130" y="190" width="60" height="210" as="geometry" />
        </mxCell>
        <mxCell id="SylHTYyNxGbu1ZK3sP99-4" value="Reverse Proxy" style="rounded=0;whiteSpace=wrap;html=1;" parent="1" vertex="1">
          <mxGeometry x="290" y="190" width="60" height="210" as="geometry" />
        </mxCell>
        <mxCell id="SylHTYyNxGbu1ZK3sP99-7" value="" style="whiteSpace=wrap;html=1;aspect=fixed;" parent="1" vertex="1">
          <mxGeometry x="450" y="170" width="220" height="220" as="geometry" />
        </mxCell>
        <mxCell id="SylHTYyNxGbu1ZK3sP99-8" value="" style="whiteSpace=wrap;html=1;aspect=fixed;" parent="1" vertex="1">
          <mxGeometry x="470" y="190" width="180" height="180" as="geometry" />
        </mxCell>
        <mxCell id="SylHTYyNxGbu1ZK3sP99-9" value="On-Prem Production" style="text;html=1;strokeColor=none;fillColor=none;align=center;verticalAlign=middle;whiteSpace=wrap;rounded=0;" parent="1" vertex="1">
          <mxGeometry x="500" y="380" width="140" height="10" as="geometry" />
        </mxCell>
        <mxCell id="SylHTYyNxGbu1ZK3sP99-10" value="NgInx" style="text;html=1;strokeColor=none;fillColor=none;align=center;verticalAlign=middle;whiteSpace=wrap;rounded=0;" parent="1" vertex="1">
          <mxGeometry x="510" y="350" width="140" height="10" as="geometry" />
        </mxCell>
        <mxCell id="SylHTYyNxGbu1ZK3sP99-11" value="" style="whiteSpace=wrap;html=1;aspect=fixed;" parent="1" vertex="1">
          <mxGeometry x="510" y="210" width="130" height="130" as="geometry" />
        </mxCell>
        <mxCell id="SylHTYyNxGbu1ZK3sP99-12" value="/certificate" style="text;html=1;strokeColor=none;fillColor=none;align=center;verticalAlign=middle;whiteSpace=wrap;rounded=0;" parent="1" vertex="1">
          <mxGeometry x="540" y="260" width="40" height="20" as="geometry" />
        </mxCell>
        <mxCell id="SylHTYyNxGbu1ZK3sP99-14" value="Docker Container" style="text;html=1;strokeColor=none;fillColor=none;align=center;verticalAlign=middle;whiteSpace=wrap;rounded=0;" parent="1" vertex="1">
          <mxGeometry x="520" y="320" width="100" height="20" as="geometry" />
        </mxCell>
        <mxCell id="SylHTYyNxGbu1ZK3sP99-18" value="" style="endArrow=classic;startArrow=classic;html=1;exitX=1.017;exitY=0.433;exitDx=0;exitDy=0;exitPerimeter=0;entryX=0;entryY=0.5;entryDx=0;entryDy=0;" parent="1" source="SylHTYyNxGbu1ZK3sP99-4" target="SylHTYyNxGbu1ZK3sP99-7" edge="1">
          <mxGeometry width="50" height="50" relative="1" as="geometry">
            <mxPoint x="400" y="280" as="sourcePoint" />
            <mxPoint x="450" y="230" as="targetPoint" />
          </mxGeometry>
        </mxCell>
        <mxCell id="SylHTYyNxGbu1ZK3sP99-22" value="" style="endArrow=classic;startArrow=classic;html=1;exitX=1.033;exitY=0.471;exitDx=0;exitDy=0;exitPerimeter=0;" parent="1" source="SylHTYyNxGbu1ZK3sP99-3" edge="1">
          <mxGeometry width="50" height="50" relative="1" as="geometry">
            <mxPoint x="410" y="290" as="sourcePoint" />
            <mxPoint x="290" y="290" as="targetPoint" />
          </mxGeometry>
        </mxCell>
        <mxCell id="SylHTYyNxGbu1ZK3sP99-23" value="" style="endArrow=classic;startArrow=classic;html=1;entryX=-0.033;entryY=0.471;entryDx=0;entryDy=0;entryPerimeter=0;" parent="1" source="SylHTYyNxGbu1ZK3sP99-1" target="SylHTYyNxGbu1ZK3sP99-3" edge="1">
          <mxGeometry width="50" height="50" relative="1" as="geometry">
            <mxPoint x="400" y="280" as="sourcePoint" />
            <mxPoint x="450" y="230" as="targetPoint" />
          </mxGeometry>
        </mxCell>
        <mxCell id="VGXdJ8wvKxAEkZaW5OUs-3" value="&lt;div&gt;https://mss-24.verizonbusiness.com/crm/certificate/*&lt;/div&gt;&lt;div&gt;https://mss-25.verizonbusiness.com/crm/certificate/*&lt;/div&gt;&lt;div&gt;https://mss-26.verizonbusiness.com/crm/certificate/*&lt;/div&gt;&lt;div&gt;&lt;br&gt;&lt;/div&gt;" style="text;html=1;strokeColor=none;fillColor=none;align=center;verticalAlign=middle;whiteSpace=wrap;rounded=0;" vertex="1" parent="1">
          <mxGeometry x="100" y="460" width="70" height="30" as="geometry" />
        </mxCell>
      </root>
    </mxGraphModel>
  </diagram>
</mxfile>
